<svg width="60" height="60" viewBox="0 0 102 101" fill="none" xmlns="http://www.w3.org/2000/svg">
    <circle cx="51.1627" cy="50.6389" r="50" fill="#FE870C"/>
    <circle cx="51.1627" cy="50.6389" r="45" fill="#FDF9CB"/>
    <path d="M90.5054 49.6389H62.1627C61.8381 47.367 60.7854 45.2617 59.1627 43.6389L79.7268 22.6074C80.5172 21.799 81.8155 21.7917 82.6149 22.5911C88.4569 28.4332 92.0392 36.1568 92.7253 44.3901L92.942 46.9908C93.0608 48.4163 91.9358 49.6389 90.5054 49.6389Z"
          fill="#FE870C"/>
    <path d="M79.3913 78.4069L58.6627 58.1389L59.3342 57.4673C61.1452 55.6563 62.1627 53.2 62.1627 50.6389L91.2496 50.6389C92.316 50.6389 93.19 51.4851 93.2243 52.551C93.5057 61.2735 90.4206 69.77 84.6082 76.2799L82.8126 78.2909C81.9137 79.2977 80.3564 79.3505 79.3913 78.4069Z"
          fill="#FFAB00"/>
    <path d="M52.1627 89.9816V60.6389H52.4611C54.5336 60.6389 56.5443 59.9335 58.1627 58.6389L79.1942 79.203C80.0025 79.9934 80.0098 81.2917 79.2104 82.0911C73.3684 87.9332 65.6447 91.5154 57.4114 92.2015L54.8108 92.4182C53.3853 92.537 52.1627 91.4121 52.1627 89.9816Z"
          fill="#FE870C"/>
    <path d="M79.0601 22.2779L58.6627 43.1389C57.028 41.8311 55.0631 41.0014 52.9858 40.7418L52.1627 40.6389L52.1627 10.5199C52.1627 9.22888 53.2507 8.20482 54.5393 8.28292C63.6575 8.83552 72.2831 12.6084 78.8784 18.9289L79.0077 19.0528C79.9191 19.9261 79.9426 21.3754 79.0601 22.2779Z"
          fill="#FFAB00"/>
    <path d="M23.1696 79.164L45.1627 57.6389C46.7761 59.2523 48.8959 60.2821 51.1625 60.5452L51.1625 90.4849C51.1625 91.6745 50.1982 92.6389 49.0086 92.6389L48.5246 92.6389C39.0087 92.6389 29.8825 88.8587 23.1537 82.1299C22.3328 81.3091 22.34 79.976 23.1696 79.164Z"
          fill="#FFAB00"/>
    <path d="M11.097 50.6389H42.1627C42.1627 52.9004 42.9555 55.0903 44.4033 56.8277L44.6627 57.1389L22.8357 78.5015C21.9193 79.3984 20.4434 79.3621 19.5722 78.4212L18.2243 76.9655C12.0974 70.3484 8.82057 61.5859 9.10225 52.5722C9.13591 51.4948 10.019 50.6389 11.097 50.6389Z"
          fill="#FE870C"/>
    <path d="M22.6997 22.7093L44.1627 44.6388C43.1771 45.9529 42.5217 47.4847 42.2517 49.105L42.1627 49.6388L12.0884 49.6388C10.5277 49.6388 9.31347 48.2822 9.48581 46.7311L9.80412 43.8662C10.6854 35.934 14.1431 28.5095 19.6472 22.7301C20.4754 21.8605 21.8597 21.8511 22.6997 22.7093Z"
          fill="#FFAB00"/>
    <path d="M51.6326 10.0958L51.1627 40.6389L51.0376 40.6545C48.5477 40.9658 46.2691 42.2112 44.6627 44.1389L23.3578 22.3709C22.4289 21.4218 22.4654 19.8935 23.4386 18.9898L25.3664 17.1997C31.9631 11.0742 40.7088 7.79658 49.7065 8.07775C50.7919 8.11167 51.6493 9.01004 51.6326 10.0958Z"
          fill="#FE870C"/>
</svg>
