<?xml version="1.0" standalone="no"?>
<!DOCTYPE svg PUBLIC "-//W3C//DTD SVG 20010904//EN"
        "http://www.w3.org/TR/2001/REC-SVG-20010904/DTD/svg10.dtd">
<svg version="1.0" xmlns="http://www.w3.org/2000/svg"
     width="20px" height="20px" viewBox="0 0 193.000000 181.000000"
     preserveAspectRatio="xMidYMid meet">

    <g transform="translate(0.000000,181.000000) scale(0.100000,-0.100000)"
       fill="#FFFFFF" stroke="none">
        <path d="M156 1664 c-18 -17 -20 -42 -7 -62 5 -9 42 -18 92 -23 208 -23 381
-179 429 -387 16 -68 8 -189 -16 -262 -59 -175 -233 -311 -422 -329 -74 -7
-92 -17 -92 -53 0 -29 29 -48 73 -48 165 -1 343 -119 418 -277 17 -37 37 -71
43 -75 18 -12 924 -10 947 2 26 14 24 52 -6 111 -56 112 -138 202 -236 257
-27 15 -49 30 -49 33 0 3 24 19 53 34 75 41 185 156 224 236 93 190 82 417
-30 591 -47 74 -148 163 -232 204 -125 61 -161 64 -695 64 -422 0 -480 -2
-494 -16z m1106 -112 c213 -86 342 -307 309 -530 -25 -170 -119 -296 -278
-374 l-88 -43 -333 -5 c-184 -3 -336 -2 -337 1 -2 3 28 39 68 80 118 121 169
244 170 409 0 163 -52 288 -170 410 -40 41 -73 75 -73 77 0 7 80 7 360 3 299
-5 318 -7 372 -28z m-7 -1080 c70 -31 104 -51 148 -86 41 -32 107 -116 107
-135 0 -8 -109 -11 -389 -11 l-388 0 -38 65 c-21 36 -67 93 -102 126 -35 33
-63 63 -63 65 0 3 152 4 338 2 324 -3 339 -4 387 -26z"/>
        <path d="M850 1331 c-14 -27 -13 -37 6 -55 13 -14 49 -16 233 -16 228 0 241 2
241 45 0 43 -13 45 -247 45 -210 0 -223 -1 -233 -19z"/>
        <path d="M953 1130 c-34 -14 -32 -67 3 -80 14 -6 119 -10 232 -10 221 0 252 6
252 50 0 10 -10 26 -22 34 -19 13 -58 16 -233 15 -115 0 -220 -4 -232 -9z"/>
        <path d="M882 908 c-15 -15 -15 -51 0 -66 17 -17 449 -17 466 0 17 17 15 44
-4 62 -13 14 -49 16 -233 16 -155 0 -220 -3 -229 -12z"/>
    </g>
</svg>
